<?xml version="1.0" encoding="utf-8"?>
<!-- Generator: Adobe Illustrator 26.3.1, SVG Export Plug-In . SVG Version: 6.00 Build 0)  -->
<svg version="1.1" id="Layer_1" xmlns="http://www.w3.org/2000/svg" xmlns:xlink="http://www.w3.org/1999/xlink" x="0px" y="0px"
	 viewBox="0 0 672.15 98.53" style="enable-background:new 0 0 672.15 98.53;" xml:space="preserve">
<style type="text/css">
	.st0{fill:#416C38;}
</style>
<path class="st0" d="M153.51,80.48c-2.69,0-4.54-1.44-5.56-4.31l-3.34-9.73c-1.07-3.1-2.29-6.7-3.68-10.77
	c-1.39-4.08-2.94-8.67-4.66-13.77c-0.65-1.81-1.29-3.03-1.91-3.68c-0.62-0.65-1.59-1.16-2.89-1.53c-0.74-0.23-1.27-0.54-1.6-0.94
	c-0.33-0.4-0.49-0.94-0.49-1.64c0-1.07,0.5-1.76,1.49-2.09c1-0.32,2.82-0.49,5.46-0.49h10.7c2.09,0,3.48,0.2,4.17,0.59
	c0.7,0.39,1.04,1.03,1.04,1.91c0,0.46-0.15,0.89-0.45,1.29c-0.3,0.39-0.64,0.64-1.01,0.73c-1.16,0.23-1.97,0.53-2.43,0.9
	c-0.46,0.37-0.7,0.9-0.7,1.6c0,0.56,0.18,1.46,0.56,2.71c2.13,7.23,4.59,15.62,7.37,25.16c0.23,0.83,0.53,1.25,0.9,1.25
	c0.18,0,0.37-0.11,0.56-0.31c0.18-0.21,0.32-0.5,0.42-0.87l6.6-19.81c0.32-0.97,0.49-1.92,0.49-2.85c0-0.83-0.16-1.97-0.49-3.41
	c-0.28-1.02-0.73-1.83-1.36-2.43c-0.62-0.6-1.49-1.07-2.61-1.39c-0.6-0.23-1.03-0.56-1.29-0.97c-0.26-0.42-0.38-0.97-0.38-1.67
	c0-1.62,1.32-2.43,3.96-2.43h12.51c1.57,0,2.7,0.2,3.37,0.59c0.67,0.39,1.01,1.03,1.01,1.91c0,0.51-0.15,0.97-0.45,1.39
	c-0.3,0.42-0.71,0.72-1.22,0.9c-1.02,0.23-1.76,0.43-2.23,0.59c-0.46,0.16-0.79,0.38-0.97,0.66c-0.23,0.23-0.35,0.58-0.35,1.04
	c0,0.46,0.14,1.16,0.42,2.09c3.34,11.49,5.82,20.11,7.44,25.86c0.28,0.65,0.6,0.98,0.97,0.98c0.37,0,0.67-0.33,0.9-0.98
	c0.28-0.79,1-2.99,2.15-6.6c0.97-2.83,2-5.89,3.09-9.18c1.09-3.29,2.26-6.81,3.51-10.57c0.23-0.69,0.35-1.2,0.35-1.53
	c0-0.6-0.3-1.05-0.9-1.35c-0.6-0.3-1.76-0.66-3.48-1.08c-0.46-0.14-0.85-0.4-1.15-0.8c-0.3-0.39-0.45-0.87-0.45-1.42
	c0-0.93,0.32-1.58,0.97-1.95c0.65-0.37,1.78-0.56,3.41-0.56h9.87c1.11,0,2,0.2,2.68,0.59c0.67,0.39,1.01,0.99,1.01,1.77
	c0,0.7-0.19,1.23-0.56,1.6c-0.37,0.37-0.88,0.67-1.53,0.9c-1.67,0.32-2.85,0.79-3.55,1.39c-0.7,0.6-1.3,1.67-1.81,3.2
	c-4.31,13.02-8.23,24.75-11.75,35.18c-0.46,1.39-1.16,2.46-2.09,3.2c-0.93,0.74-1.99,1.11-3.2,1.11h-0.21
	c-1.3,0-2.46-0.36-3.48-1.08c-1.02-0.72-1.74-1.73-2.15-3.02c-2.46-8.53-4.59-15.99-6.4-22.38c-0.19-0.74-0.44-1.11-0.76-1.11
	c-0.28,0-0.56,0.37-0.83,1.11c-1.67,4.96-4.22,12.4-7.65,22.31c-0.46,1.39-1.16,2.43-2.09,3.13c-0.93,0.7-1.95,1.04-3.06,1.04
	H153.51z"/>
<path class="st0" d="M213.83,58.67c0.79-0.14,1.34-0.37,1.67-0.7c0.33-0.32,0.49-0.79,0.49-1.39c0-0.97-0.26-1.98-0.76-3.02
	c-0.51-1.04-1.24-1.92-2.19-2.64c-0.95-0.72-2.03-1.08-3.23-1.08c-1.76,0-3.22,0.72-4.38,2.15c-1.16,1.44-1.74,3.38-1.74,5.84
	c0,0.88,0.08,1.49,0.24,1.84c0.16,0.35,0.43,0.52,0.8,0.52c0.14,0,0.39-0.05,0.76-0.14L213.83,58.67z M201.56,78.2
	c-2.62-1.62-4.62-3.8-6.01-6.53c-1.39-2.73-2.09-5.72-2.09-8.97c0-3.38,0.81-6.39,2.43-9.04c1.62-2.64,3.78-4.68,6.46-6.12
	c2.69-1.43,5.61-2.15,8.76-2.15c2.92,0,5.47,0.61,7.65,1.84c2.18,1.23,3.85,2.76,5.01,4.59c1.16,1.83,1.74,3.65,1.74,5.46
	c0,1.76-0.42,3.01-1.25,3.75c-0.83,0.74-2.25,1.25-4.24,1.53l-13.9,2.02c-0.46,0.09-0.79,0.22-0.97,0.38
	c-0.19,0.16-0.28,0.41-0.28,0.73c0,1.2,0.37,2.43,1.11,3.68c0.74,1.25,1.81,2.31,3.2,3.16c1.39,0.86,3.03,1.29,4.93,1.29
	c2.04,0,3.83-0.42,5.39-1.25c1.55-0.83,2.79-1.83,3.72-2.99c0.37-0.42,0.74-0.63,1.11-0.63c0.55,0,0.96,0.16,1.22,0.49
	c0.25,0.32,0.38,0.7,0.38,1.11c0,0.18-0.05,0.42-0.14,0.7c-0.93,2.6-2.64,4.81-5.14,6.64c-2.5,1.83-5.77,2.75-9.8,2.75
	C207.27,80.63,204.17,79.82,201.56,78.2"/>
<path class="st0" d="M233.45,78.96c-1.67-0.69-3.08-1.62-4.24-2.78c-1.39-1.39-2.08-3.06-2.08-5c0-1.02,0.29-1.86,0.87-2.54
	c0.58-0.67,1.38-1.01,2.4-1.01c0.88,0,1.66,0.24,2.33,0.73s1.29,1.35,1.84,2.61c0.42,1.39,1.19,2.53,2.33,3.41
	c1.14,0.88,2.54,1.32,4.21,1.32c1.9,0,3.37-0.37,4.41-1.11c1.04-0.74,1.57-1.74,1.57-2.99c0-1.34-0.58-2.48-1.74-3.41
	c-1.16-0.93-3.17-1.78-6.05-2.57c-4.03-1.11-6.88-2.51-8.55-4.21c-1.67-1.69-2.5-3.97-2.5-6.85c0-1.85,0.6-3.49,1.81-4.9
	c1.2-1.41,2.8-2.5,4.8-3.27c1.99-0.76,4.15-1.15,6.47-1.15c2.92,0,5.65,0.51,8.2,1.53c1.81,0.65,3.29,1.55,4.45,2.71
	c1.39,1.48,2.09,3.13,2.09,4.94c0,0.88-0.28,1.63-0.84,2.26c-0.56,0.62-1.32,0.94-2.29,0.94c-0.88,0-1.63-0.21-2.26-0.63
	c-0.62-0.42-1.19-1.18-1.7-2.29c-0.42-1.39-1.15-2.49-2.19-3.3c-1.04-0.81-2.4-1.22-4.07-1.22c-1.3,0-2.36,0.3-3.2,0.9
	c-0.84,0.6-1.25,1.37-1.25,2.29c0,1.34,0.51,2.46,1.53,3.34c1.02,0.88,2.92,1.64,5.7,2.29c4.4,1.07,7.51,2.49,9.32,4.28
	c1.81,1.78,2.71,4.02,2.71,6.71c0,3.48-1.42,6.12-4.24,7.92c-2.83,1.81-6.63,2.71-11.4,2.71C238.76,80.63,235.96,80.08,233.45,78.96
	"/>
<path class="st0" d="M263.09,69.02V52.2c0-1.07-0.51-1.6-1.53-1.6h-1.11c-0.6,0-1.05-0.2-1.36-0.59c-0.3-0.39-0.45-0.87-0.45-1.42
	c0-0.83,0.44-1.85,1.32-3.06l1.04-1.46c1.62-2.36,3.27-4.24,4.94-5.63c2.04-1.48,3.92-2.22,5.63-2.22c0.65,0,1.1,0.2,1.36,0.59
	c0.25,0.39,0.38,1.05,0.38,1.98v4.17c0,0.83,0.02,1.49,0.07,1.98c0.04,0.49,0.15,0.8,0.31,0.94c0.16,0.14,0.45,0.21,0.87,0.21h8.41
	c0.65,0,1.09,0.09,1.32,0.28c0.23,0.18,0.35,0.65,0.35,1.39c0,0.93-0.23,1.63-0.7,2.12c-0.46,0.49-1.11,0.73-1.95,0.73h-6.95
	c-1.21,0-1.81,0.56-1.81,1.67v15.22c0,1.99,0.43,3.51,1.29,4.55c0.86,1.04,2.05,1.57,3.58,1.57c0.88,0,1.84-0.23,2.89-0.7
	c1.04-0.46,1.96-1.18,2.75-2.15c0.42-0.46,0.86-0.7,1.32-0.7c0.42,0,0.77,0.17,1.04,0.52c0.28,0.35,0.37,0.78,0.28,1.29
	c-0.74,2.87-2.14,5.04-4.2,6.5c-2.06,1.46-4.72,2.19-7.96,2.19C266.8,80.56,263.09,76.72,263.09,69.02"/>
<path class="st0" d="M308.69,77.37c-3.55-2.18-6.33-5.22-8.34-9.14c-2.02-3.91-3.02-8.38-3.02-13.38c0-4.63,0.98-8.82,2.95-12.55
	c1.97-3.73,4.69-6.66,8.17-8.79c3.48-2.13,7.35-3.2,11.61-3.2c2.27,0,4.51,0.33,6.71,0.97c2.2,0.65,4.21,1.55,6.01,2.71
	c0.93,0.6,1.74,1.23,2.43,1.88c0.88,0.83,1.72,1.83,2.5,2.99c1.11,1.72,1.67,3.52,1.67,5.42c0,1.48-0.45,2.76-1.36,3.82
	c-0.9,1.07-2.26,1.6-4.07,1.6c-1.35,0-2.53-0.4-3.55-1.22c-1.02-0.81-2.02-2.42-2.99-4.83c-0.51-2.36-1.48-4.29-2.92-5.77
	c-1.44-1.48-3.34-2.22-5.7-2.22c-2.87,0-5.21,1.24-7.02,3.72c-1.81,2.48-2.71,5.78-2.71,9.91c0,6.35,1.28,11.61,3.82,15.78
	c2.55,4.17,6.35,6.26,11.4,6.26c3.24,0,5.91-0.73,7.99-2.19c2.09-1.46,3.45-3.32,4.1-5.6c0.32-0.65,0.9-0.97,1.74-0.97
	c0.55,0,1.05,0.2,1.49,0.59c0.44,0.4,0.64,0.94,0.59,1.63c-0.14,2.41-0.99,4.84-2.54,7.3c-1.55,2.46-3.79,4.5-6.71,6.12
	c-2.92,1.62-6.4,2.43-10.43,2.43C316.18,80.63,312.23,79.55,308.69,77.37"/>
<path class="st0" d="M365.45,73.61c1.32-1.67,1.98-3.94,1.98-6.81c0-2.41-0.37-4.94-1.11-7.58c-0.74-2.64-1.82-4.85-3.23-6.64
	c-1.41-1.79-3.05-2.68-4.9-2.68c-2.13,0-3.87,0.83-5.21,2.47c-1.35,1.65-2.02,3.88-2.02,6.71c0,2.5,0.37,5.08,1.11,7.72
	c0.74,2.64,1.81,4.85,3.2,6.64c1.39,1.79,3.01,2.68,4.87,2.68C362.36,76.12,364.13,75.28,365.45,73.61 M349.32,78.34
	c-2.9-1.53-5.15-3.64-6.74-6.32c-1.6-2.69-2.4-5.72-2.4-9.11s0.8-6.42,2.4-9.11c1.6-2.69,3.85-4.79,6.74-6.29
	c2.9-1.51,6.2-2.26,9.91-2.26c3.71,0,7.01,0.75,9.91,2.26c2.9,1.51,5.15,3.61,6.74,6.29c1.6,2.69,2.4,5.72,2.4,9.11
	c0,3.43-0.8,6.49-2.4,9.17c-1.6,2.69-3.85,4.79-6.74,6.29c-2.9,1.51-6.2,2.26-9.91,2.26C355.52,80.63,352.22,79.87,349.32,78.34"/>
<path class="st0" d="M399.2,72.92c1.2-1.34,1.81-3.08,1.81-5.21c0-0.65-0.02-1.13-0.07-1.46l-0.14-0.83
	c-0.14-0.97-0.49-1.59-1.04-1.84c-0.56-0.25-1.72-0.38-3.48-0.38c-2.46,0-4.25,0.53-5.39,1.6c-1.14,1.07-1.7,2.5-1.7,4.31
	c0,1.9,0.48,3.35,1.42,4.34c0.95,1,2.33,1.49,4.14,1.49C396.51,74.93,397.99,74.26,399.2,72.92 M381.54,77.89
	c-1.81-1.83-2.71-4.18-2.71-7.06c0-3.2,1.39-5.79,4.17-7.79c2.78-1.99,6.49-3.1,11.12-3.34c1.67-0.09,2.9-0.23,3.68-0.42
	c0.79-0.18,1.31-0.45,1.57-0.8c0.25-0.35,0.34-0.87,0.24-1.57l-0.14-1.46c-0.28-1.85-0.81-3.26-1.6-4.21
	c-0.79-0.95-1.97-1.42-3.55-1.42c-1.48,0-2.72,0.42-3.72,1.25c-1,0.83-1.59,2.06-1.77,3.68c-0.46,2.41-2.02,3.61-4.66,3.61
	c-0.83,0-1.58-0.29-2.23-0.87c-0.65-0.58-0.97-1.4-0.97-2.47c0-1.85,0.71-3.52,2.12-5.01c1.41-1.48,3.31-2.65,5.7-3.51
	c2.39-0.86,5.02-1.29,7.89-1.29c4.35,0,7.51,0.97,9.45,2.92c1.95,1.95,3.15,4.89,3.62,8.83l1.6,12.51c0.18,1.53,0.46,2.56,0.83,3.09
	c0.37,0.53,0.86,0.8,1.46,0.8c0.56,0,1.07-0.2,1.53-0.59c0.46-0.39,0.81-0.59,1.04-0.59c0.88,0,1.32,0.56,1.32,1.67
	c0,0.97-0.32,1.96-0.97,2.96c-0.65,1-1.54,1.83-2.68,2.5c-1.14,0.67-2.4,1.01-3.79,1.01c-1.9,0-3.38-0.43-4.45-1.29
	c-1.07-0.86-1.88-2.12-2.43-3.79c-0.14-0.46-0.35-0.7-0.63-0.7c-0.14,0-0.6,0.55-1.39,1.63c-0.79,1.09-2.07,2.1-3.86,3.02
	c-1.79,0.93-4.21,1.39-7.26,1.39C386.2,80.63,383.35,79.72,381.54,77.89"/>
<path class="st0" d="M423.13,78.96c-1.67-0.69-3.08-1.62-4.24-2.78c-1.39-1.39-2.08-3.06-2.08-5c0-1.02,0.29-1.86,0.87-2.54
	c0.58-0.67,1.38-1.01,2.4-1.01c0.88,0,1.66,0.24,2.33,0.73s1.29,1.35,1.84,2.61c0.42,1.39,1.19,2.53,2.33,3.41s2.54,1.32,4.21,1.32
	c1.9,0,3.37-0.37,4.41-1.11c1.04-0.74,1.57-1.74,1.57-2.99c0-1.34-0.58-2.48-1.74-3.41c-1.16-0.93-3.17-1.78-6.05-2.57
	c-4.03-1.11-6.88-2.51-8.55-4.21c-1.67-1.69-2.5-3.97-2.5-6.85c0-1.85,0.6-3.49,1.81-4.9c1.2-1.41,2.8-2.5,4.8-3.27
	c1.99-0.76,4.15-1.15,6.47-1.15c2.92,0,5.65,0.51,8.2,1.53c1.81,0.65,3.29,1.55,4.45,2.71c1.39,1.48,2.09,3.13,2.09,4.94
	c0,0.88-0.28,1.63-0.84,2.26c-0.56,0.62-1.32,0.94-2.29,0.94c-0.88,0-1.63-0.21-2.26-0.63c-0.62-0.42-1.19-1.18-1.7-2.29
	c-0.42-1.39-1.15-2.49-2.19-3.3c-1.04-0.81-2.4-1.22-4.07-1.22c-1.3,0-2.36,0.3-3.2,0.9c-0.83,0.6-1.25,1.37-1.25,2.29
	c0,1.34,0.51,2.46,1.53,3.34c1.02,0.88,2.92,1.64,5.7,2.29c4.4,1.07,7.51,2.49,9.32,4.28c1.81,1.78,2.71,4.02,2.71,6.71
	c0,3.48-1.41,6.12-4.24,7.92c-2.83,1.81-6.63,2.71-11.4,2.71C428.44,80.63,425.64,80.08,423.13,78.96"/>
<path class="st0" d="M450.7,69.02V52.2c0-1.07-0.51-1.6-1.53-1.6h-1.11c-0.6,0-1.05-0.2-1.36-0.59c-0.3-0.39-0.45-0.87-0.45-1.42
	c0-0.83,0.44-1.85,1.32-3.06l1.04-1.46c1.62-2.36,3.27-4.24,4.94-5.63c2.04-1.48,3.92-2.22,5.63-2.22c0.65,0,1.1,0.2,1.36,0.59
	c0.25,0.39,0.38,1.05,0.38,1.98v4.17c0,0.83,0.02,1.49,0.07,1.98c0.04,0.49,0.15,0.8,0.31,0.94c0.16,0.14,0.45,0.21,0.87,0.21h8.41
	c0.65,0,1.09,0.09,1.32,0.28c0.23,0.18,0.35,0.65,0.35,1.39c0,0.93-0.23,1.63-0.7,2.12c-0.46,0.49-1.11,0.73-1.95,0.73h-6.95
	c-1.21,0-1.81,0.56-1.81,1.67v15.22c0,1.99,0.43,3.51,1.29,4.55c0.86,1.04,2.05,1.57,3.58,1.57c0.88,0,1.84-0.23,2.89-0.7
	c1.04-0.46,1.96-1.18,2.75-2.15c0.42-0.46,0.86-0.7,1.32-0.7c0.42,0,0.77,0.17,1.04,0.52c0.28,0.35,0.37,0.78,0.28,1.29
	c-0.74,2.87-2.14,5.04-4.2,6.5c-2.06,1.46-4.72,2.19-7.96,2.19C454.41,80.56,450.7,76.72,450.7,69.02"/>
<path class="st0" d="M494.96,79.03c-2.83-1.06-5.1-2.55-6.81-4.45c-1.07-1.16-1.86-2.36-2.36-3.61c-0.51-1.25-0.77-2.55-0.77-3.89
	c0-1.3,0.35-2.36,1.04-3.2c0.7-0.83,1.64-1.25,2.85-1.25c1.11,0,2.11,0.34,2.99,1.01s1.46,1.75,1.74,3.23
	c0.37,2.64,1.37,4.68,2.99,6.12c1.62,1.44,3.66,2.15,6.12,2.15c2.32,0,4.18-0.63,5.6-1.88c1.41-1.25,2.12-2.97,2.12-5.14
	c0-2.32-0.82-4.21-2.47-5.67c-1.65-1.46-4.09-2.7-7.33-3.72c-5.1-1.67-8.71-3.72-10.85-6.15c-2.13-2.43-3.2-5.57-3.2-9.42
	c0-2.41,0.68-4.59,2.05-6.53c1.37-1.95,3.35-3.49,5.94-4.62c2.6-1.14,5.63-1.7,9.11-1.7c2.97,0,5.79,0.51,8.48,1.53
	c2.69,1.02,4.84,2.46,6.47,4.31c0.88,0.88,1.6,1.92,2.15,3.13c0.56,1.44,0.83,2.83,0.83,4.17c0,1.16-0.32,2.12-0.97,2.89
	c-0.65,0.77-1.55,1.15-2.71,1.15c-2.41,0-3.89-1.2-4.45-3.61c-0.42-2.64-1.38-4.67-2.89-6.08c-1.51-1.41-3.42-2.12-5.73-2.12
	c-1.99,0-3.66,0.53-5.01,1.6c-1.35,1.07-2.02,2.48-2.02,4.24c0,2.04,0.75,3.73,2.26,5.08c1.51,1.35,4.07,2.53,7.68,3.55
	c5.65,1.62,9.67,3.72,12.06,6.29c2.39,2.57,3.58,5.73,3.58,9.49c0,2.92-0.8,5.49-2.4,7.72c-1.6,2.22-3.87,3.95-6.81,5.18
	c-2.94,1.23-6.36,1.84-10.25,1.84C500.8,80.63,497.79,80.1,494.96,79.03"/>
<path class="st0" d="M545.23,58.67c0.79-0.14,1.34-0.37,1.67-0.7c0.32-0.32,0.49-0.79,0.49-1.39c0-0.97-0.26-1.98-0.76-3.02
	c-0.51-1.04-1.24-1.92-2.19-2.64c-0.95-0.72-2.03-1.08-3.23-1.08c-1.76,0-3.22,0.72-4.38,2.15c-1.16,1.44-1.74,3.38-1.74,5.84
	c0,0.88,0.08,1.49,0.24,1.84s0.43,0.52,0.8,0.52c0.14,0,0.39-0.05,0.77-0.14L545.23,58.67z M532.96,78.2
	c-2.62-1.62-4.62-3.8-6.01-6.53c-1.39-2.73-2.08-5.72-2.08-8.97c0-3.38,0.81-6.39,2.43-9.04c1.62-2.64,3.78-4.68,6.46-6.12
	c2.69-1.43,5.61-2.15,8.76-2.15c2.92,0,5.47,0.61,7.65,1.84c2.18,1.23,3.85,2.76,5.01,4.59c1.16,1.83,1.74,3.65,1.74,5.46
	c0,1.76-0.42,3.01-1.25,3.75c-0.83,0.74-2.25,1.25-4.24,1.53l-13.9,2.02c-0.46,0.09-0.79,0.22-0.97,0.38
	c-0.19,0.16-0.28,0.41-0.28,0.73c0,1.2,0.37,2.43,1.11,3.68c0.74,1.25,1.81,2.31,3.2,3.16c1.39,0.86,3.03,1.29,4.93,1.29
	c2.04,0,3.83-0.42,5.39-1.25c1.55-0.83,2.79-1.83,3.72-2.99c0.37-0.42,0.74-0.63,1.11-0.63c0.56,0,0.96,0.16,1.22,0.49
	c0.26,0.32,0.38,0.7,0.38,1.11c0,0.18-0.05,0.42-0.14,0.7c-0.93,2.6-2.64,4.81-5.14,6.64c-2.5,1.83-5.77,2.75-9.8,2.75
	C538.67,80.63,535.58,79.82,532.96,78.2"/>
<path class="st0" d="M578.33,58.67c0.79-0.14,1.34-0.37,1.67-0.7c0.33-0.32,0.49-0.79,0.49-1.39c0-0.97-0.26-1.98-0.77-3.02
	c-0.51-1.04-1.24-1.92-2.19-2.64c-0.95-0.72-2.03-1.08-3.23-1.08c-1.76,0-3.22,0.72-4.38,2.15c-1.16,1.44-1.74,3.38-1.74,5.84
	c0,0.88,0.08,1.49,0.24,1.84s0.43,0.52,0.8,0.52c0.14,0,0.39-0.05,0.76-0.14L578.33,58.67z M566.06,78.2
	c-2.62-1.62-4.62-3.8-6.01-6.53c-1.39-2.73-2.09-5.72-2.09-8.97c0-3.38,0.81-6.39,2.43-9.04c1.62-2.64,3.78-4.68,6.46-6.12
	c2.69-1.43,5.61-2.15,8.76-2.15c2.92,0,5.47,0.61,7.65,1.84c2.18,1.23,3.85,2.76,5.01,4.59c1.16,1.83,1.74,3.65,1.74,5.46
	c0,1.76-0.42,3.01-1.25,3.75c-0.83,0.74-2.25,1.25-4.24,1.53l-13.9,2.02c-0.46,0.09-0.79,0.22-0.97,0.38
	c-0.19,0.16-0.28,0.41-0.28,0.73c0,1.2,0.37,2.43,1.11,3.68c0.74,1.25,1.81,2.31,3.2,3.16c1.39,0.86,3.03,1.29,4.94,1.29
	c2.04,0,3.83-0.42,5.39-1.25c1.55-0.83,2.79-1.83,3.72-2.99c0.37-0.42,0.74-0.63,1.11-0.63c0.55,0,0.96,0.16,1.22,0.49
	c0.25,0.32,0.38,0.7,0.38,1.11c0,0.18-0.05,0.42-0.14,0.7c-0.93,2.6-2.64,4.81-5.14,6.64c-2.5,1.83-5.77,2.75-9.8,2.75
	C571.77,80.63,568.68,79.82,566.06,78.2"/>
<path class="st0" d="M614.36,71.46c1.27-1.57,1.91-3.64,1.91-6.19v-2.16c0-4.31-0.65-7.61-1.95-9.91c-1.3-2.29-3.13-3.44-5.49-3.44
	c-1.9,0-3.52,0.82-4.87,2.47c-1.34,1.64-2.02,4-2.02,7.06c0,4.45,0.7,7.98,2.09,10.6c1.39,2.62,3.29,3.93,5.7,3.93
	C611.54,73.82,613.08,73.03,614.36,71.46 M597.53,78.44c-1.97-1.46-3.49-3.5-4.55-6.12c-1.07-2.62-1.6-5.6-1.6-8.93
	c0-3.34,0.65-6.38,1.95-9.14c1.3-2.76,3.14-4.94,5.53-6.53c2.39-1.6,5.15-2.4,8.31-2.4c1.85,0,3.32,0.26,4.41,0.77
	c1.09,0.51,2,1.07,2.75,1.67c0.74,0.6,1.2,0.9,1.39,0.9c0.23,0,0.38-0.26,0.45-0.77c0.07-0.51,0.1-1.41,0.1-2.71V40.8
	c0-1.07-0.12-1.87-0.35-2.4c-0.23-0.53-0.72-0.87-1.46-1.01c-0.28-0.05-0.74-0.12-1.39-0.21c-0.65-0.09-1.14-0.24-1.46-0.45
	c-0.32-0.21-0.49-0.52-0.49-0.94c0-0.56,0.24-1.02,0.73-1.39c0.49-0.37,1.19-0.74,2.12-1.11c0.37-0.14,1.32-0.46,2.85-0.97
	c1.53-0.51,2.87-0.9,4.03-1.18c1.16-0.28,2.11-0.42,2.85-0.42c1.02,0,1.74,0.17,2.16,0.52c0.42,0.35,0.63,0.99,0.63,1.91v36.98
	c0,1.07,0.13,1.89,0.38,2.47c0.25,0.58,0.73,0.89,1.42,0.94c1.2,0.09,2.05,0.22,2.54,0.38c0.49,0.16,0.75,0.57,0.8,1.22
	c0,0.65-0.23,1.15-0.69,1.49c-0.46,0.35-1.18,0.68-2.16,1.01c-0.37,0.14-1.32,0.46-2.85,0.97c-1.53,0.51-2.87,0.9-4.03,1.18
	c-1.16,0.28-2.11,0.42-2.85,0.42c-1.02,0-1.74-0.17-2.16-0.52c-0.42-0.35-0.63-0.98-0.63-1.91v-1.67c0-0.83-0.02-1.51-0.07-2.02
	c-0.05-0.51-0.14-0.76-0.28-0.76c-0.09,0-0.57,0.66-1.42,1.98c-0.86,1.32-2.14,2.54-3.86,3.65s-3.82,1.67-6.32,1.67
	C601.76,80.63,599.5,79.9,597.53,78.44"/>
<path class="st0" d="M637.77,78.96c-1.67-0.69-3.08-1.62-4.24-2.78c-1.39-1.39-2.08-3.06-2.08-5c0-1.02,0.29-1.86,0.87-2.54
	c0.58-0.67,1.38-1.01,2.4-1.01c0.88,0,1.66,0.24,2.33,0.73s1.29,1.35,1.84,2.61c0.42,1.39,1.19,2.53,2.33,3.41s2.54,1.32,4.21,1.32
	c1.9,0,3.37-0.37,4.41-1.11c1.04-0.74,1.56-1.74,1.56-2.99c0-1.34-0.58-2.48-1.74-3.41c-1.16-0.93-3.17-1.78-6.05-2.57
	c-4.03-1.11-6.88-2.51-8.55-4.21c-1.67-1.69-2.5-3.97-2.5-6.85c0-1.85,0.6-3.49,1.81-4.9c1.2-1.41,2.8-2.5,4.8-3.27
	c1.99-0.76,4.15-1.15,6.47-1.15c2.92,0,5.65,0.51,8.2,1.53c1.81,0.65,3.29,1.55,4.45,2.71c1.39,1.48,2.09,3.13,2.09,4.94
	c0,0.88-0.28,1.63-0.83,2.26c-0.56,0.62-1.32,0.94-2.29,0.94c-0.88,0-1.63-0.21-2.26-0.63c-0.62-0.42-1.19-1.18-1.7-2.29
	c-0.42-1.39-1.15-2.49-2.19-3.3c-1.04-0.81-2.4-1.22-4.07-1.22c-1.3,0-2.36,0.3-3.2,0.9c-0.83,0.6-1.25,1.37-1.25,2.29
	c0,1.34,0.51,2.46,1.53,3.34c1.02,0.88,2.92,1.64,5.7,2.29c4.4,1.07,7.51,2.49,9.32,4.28c1.81,1.78,2.71,4.02,2.71,6.71
	c0,3.48-1.41,6.12-4.24,7.92c-2.83,1.81-6.63,2.71-11.4,2.71C643.08,80.63,640.28,80.08,637.77,78.96"/>
<polygon class="st0" points="666.94,74.82 666.94,75.39 665.32,75.39 665.32,79.63 664.66,79.63 664.66,75.39 663.04,75.39 
	663.04,74.82 "/>
<path class="st0" d="M667.53,74.82h0.93l1.38,4.07l1.37-4.07h0.93v4.81h-0.62v-2.84c0-0.1,0-0.26,0.01-0.49
	c0-0.23,0.01-0.47,0.01-0.73l-1.37,4.06h-0.65l-1.39-4.06v0.15c0,0.12,0,0.3,0.01,0.54c0.01,0.24,0.01,0.42,0.01,0.53v2.84h-0.62
	V74.82z"/>
<polygon class="st0" points="97.55,90.54 97.55,91.11 95.93,91.11 95.93,95.35 95.27,95.35 95.27,91.11 93.65,91.11 93.65,90.54 "/>
<path class="st0" d="M98.13,90.54h0.93l1.38,4.07l1.37-4.07h0.93v4.81h-0.62v-2.84c0-0.1,0-0.26,0.01-0.49c0-0.23,0-0.47,0-0.73
	l-1.37,4.06h-0.65l-1.39-4.06v0.15c0,0.12,0,0.3,0.01,0.54c0.01,0.24,0.01,0.42,0.01,0.53v2.84h-0.62V90.54z"/>
<path class="st0" d="M55.84,47.41c0.12,1.22,1.02,1.95,2.24,1.82c1.22-0.12,1.93-1.22,1.82-2.24c-0.12-1.22-1.02-1.95-2.24-1.82
	C56.45,45.29,55.72,46.19,55.84,47.41"/>
<path class="st0" d="M51.32,41.3c0.12,1.22,1.02,1.95,2.24,1.82c1.22-0.12,1.95-1.02,1.82-2.24s-1.02-1.95-2.24-1.82
	C51.92,39.19,51.19,40.09,51.32,41.3"/>
<path class="st0" d="M56.34,32.18c-1.22,0.12-1.95,1.02-1.82,2.24c0.12,1.22,1.02,1.95,2.24,1.82c1.22-0.12,1.95-1.02,1.82-2.24
	C58.45,32.78,57.55,32.05,56.34,32.18"/>
<path class="st0" d="M54.45,51.86c-1.22,0.12-1.95,1.02-1.82,2.24c0.12,1.22,1.02,1.95,2.24,1.82c1.22-0.12,1.95-1.02,1.82-2.24
	C56.56,52.46,55.67,51.73,54.45,51.86"/>
<path class="st0" d="M61.28,42.34c1.22-0.12,1.95-1.02,1.82-2.24c-0.12-1.22-1.02-1.95-2.24-1.82c-1.22,0.12-1.95,1.02-1.82,2.24
	C59.16,41.73,60.06,42.46,61.28,42.34"/>
<path class="st0" d="M35.82,36.32c-0.12-1.22-1.02-1.95-2.24-1.82c-1.22,0.12-1.93,1.22-1.82,2.24c0.12,1.22,1.02,1.95,2.24,1.82
	C35.22,38.44,35.95,37.54,35.82,36.32"/>
<path class="st0" d="M30.39,41.39c-1.22,0.12-1.95,1.02-1.82,2.24c0.12,1.22,1.02,1.95,2.24,1.82c1.22-0.12,1.95-1.02,1.82-2.24
	C32.5,42,31.61,41.27,30.39,41.39"/>
<path class="st0" d="M35.33,51.55c1.02-0.1,1.93-1.22,1.82-2.24c-0.12-1.22-1.02-1.95-2.24-1.82c-1.22,0.12-1.95,1.02-1.82,2.24
	S34.11,51.68,35.33,51.55"/>
<path class="st0" d="M37.21,31.87c1.22-0.12,1.95-1.02,1.82-2.24s-1.02-1.95-2.24-1.82c-1.22,0.12-1.95,1.02-1.82,2.24
	C35.1,31.27,35.99,32,37.21,31.87"/>
<path class="st0" d="M40.35,42.42c-0.12-1.22-1.22-1.93-2.24-1.82c-1.22,0.12-1.95,1.02-1.82,2.24s1.02,1.95,2.24,1.82
	C39.74,44.54,40.47,43.64,40.35,42.42"/>
<path class="st0" d="M51.83,26.28c-1.02,0.1-1.95,1.02-1.82,2.24c0.12,1.22,1.02,1.95,2.24,1.82c1.22-0.12,1.95-1.02,1.82-2.24
	C53.95,26.88,53.05,26.15,51.83,26.28"/>
<path class="st0" d="M49.17,54.45c-0.12-1.22-1.02-1.95-2.24-1.82c-1.22,0.12-1.95,1.02-1.82,2.24c0.12,1.22,1.02,1.95,2.24,1.82
	C48.57,56.56,49.3,55.66,49.17,54.45"/>
<path class="st0" d="M39.27,35.97c0.12,1.22,1.02,1.95,2.24,1.82c1.22-0.12,1.95-1.02,1.82-2.24s-1.02-1.95-2.24-1.82
	C40.08,33.84,39.17,34.96,39.27,35.97"/>
<path class="st0" d="M42.43,46.72c-1.22,0.12-1.95,1.02-1.82,2.24c0.12,1.22,1.02,1.95,2.24,1.82c1.22-0.12,1.93-1.22,1.82-2.24
	C44.54,47.33,43.65,46.6,42.43,46.72"/>
<path class="st0" d="M75.83,45.73c-1.34,0.02-2.67-0.1-3.98-0.37c0.32-2.23,0.32-4.5,0-6.73c0.66-0.14,1.33-0.24,2.01-0.29
	c0.61-0.05,1.26-0.09,1.97-0.09c3.41,0.33,6.66,1.63,9.37,3.74C82.49,44.1,79.24,45.39,75.83,45.73 M72.1,56.88
	c-0.58-0.23-1.15-0.5-1.7-0.79c-0.54-0.45-1.11-0.87-1.7-1.26c1.03-1.83,1.84-3.79,2.4-5.82c0.71,0.15,1.43,0.26,2.15,0.32
	c0.54,0.18,1.11,0.39,1.73,0.64c3.03,1.61,5.53,4.06,7.21,7.05C78.88,57.94,75.38,57.89,72.1,56.88 M64.41,65.8
	c-0.47-0.47-0.87-0.92-1.25-1.35c-0.04-0.06-0.08-0.11-0.13-0.17c-0.43-0.5-0.82-1.03-1.17-1.58c1.78-1.38,3.38-2.97,4.75-4.75
	c0.55,0.35,1.08,0.75,1.58,1.17c0.05,0.04,0.11,0.09,0.16,0.12c0.43,0.37,0.88,0.78,1.35,1.25c2.18,2.65,3.55,5.87,3.96,9.27
	C70.27,69.35,67.06,67.97,64.41,65.8 M60.92,78.27c-2.98-1.69-5.41-4.18-7.02-7.2c-0.26-0.64-0.47-1.23-0.66-1.78
	c-0.06-0.71-0.16-1.41-0.3-2.11c2.03-0.56,3.98-1.37,5.81-2.4c0.39,0.59,0.81,1.16,1.26,1.7c0.29,0.55,0.56,1.13,0.79,1.71
	C61.81,71.47,61.85,74.97,60.92,78.27 M61.86,21.28c0.36-0.55,0.75-1.08,1.17-1.58c0.04-0.05,0.09-0.11,0.12-0.16
	c0.37-0.43,0.78-0.88,1.25-1.35c2.65-2.18,5.87-3.55,9.27-3.96c-0.42,3.4-1.8,6.61-3.97,9.26c-0.47,0.47-0.92,0.87-1.35,1.25
	c-0.06,0.04-0.11,0.08-0.17,0.13c-0.5,0.43-1.03,0.82-1.58,1.17C65.24,24.25,63.64,22.66,61.86,21.28 M60.8,15.79
	c-0.23,0.58-0.5,1.15-0.79,1.7c-0.45,0.54-0.87,1.11-1.26,1.71c-1.84-1.03-3.79-1.84-5.82-2.4c0.15-0.71,0.26-1.42,0.32-2.14
	c0.18-0.54,0.39-1.11,0.64-1.73c1.61-3.03,4.06-5.53,7.05-7.21C61.86,9.02,61.8,12.51,60.8,15.79 M49.27,16.05
	c-1.12-0.15-2.24-0.23-3.37-0.24c-1.13,0.01-2.25,0.09-3.37,0.24c-0.14-0.66-0.24-1.33-0.29-2.01c-0.05-0.61-0.09-1.26-0.09-1.97
	c0.33-3.41,1.63-6.66,3.74-9.37c2.11,2.71,3.4,5.96,3.74,9.37C49.66,13.41,49.54,14.74,49.27,16.05 M33.07,19.2
	c-0.39-0.59-0.81-1.16-1.26-1.71c-0.29-0.55-0.56-1.12-0.79-1.71C30,12.51,29.96,9.01,30.89,5.71c2.98,1.68,5.41,4.18,7.03,7.2
	c0.26,0.64,0.47,1.23,0.66,1.78c0.06,0.71,0.16,1.41,0.3,2.11C36.85,17.36,34.9,18.17,33.07,19.2 M25.19,26.03
	c-0.55-0.36-1.08-0.75-1.58-1.17c-0.05-0.04-0.11-0.09-0.16-0.12c-0.43-0.37-0.88-0.78-1.35-1.25c-2.18-2.65-3.55-5.87-3.96-9.27
	c3.4,0.42,6.61,1.8,9.26,3.97c0.48,0.47,0.89,0.92,1.25,1.35c0.04,0.06,0.08,0.12,0.13,0.17c0.43,0.5,0.82,1.03,1.18,1.58
	C28.16,22.66,26.57,24.25,25.19,26.03 M29.95,62.7c-0.36,0.55-0.75,1.08-1.17,1.58c-0.04,0.05-0.09,0.11-0.12,0.16
	c-0.37,0.43-0.78,0.88-1.25,1.35c-2.65,2.18-5.87,3.55-9.27,3.96c0.42-3.4,1.8-6.61,3.97-9.26c0.47-0.47,0.92-0.87,1.35-1.25
	c0.06-0.04,0.11-0.08,0.17-0.13c0.5-0.43,1.03-0.82,1.58-1.17C26.57,59.73,28.17,61.32,29.95,62.7 M31.02,68.18
	c0.23-0.58,0.5-1.14,0.79-1.69c0.45-0.54,0.87-1.11,1.26-1.7c1.83,1.03,3.79,1.84,5.82,2.41c-0.15,0.71-0.26,1.42-0.32,2.14
	c-0.18,0.54-0.39,1.11-0.64,1.73c-1.61,3.03-4.06,5.53-7.05,7.21C29.95,74.97,30.01,71.46,31.02,68.18 M9.63,57.01
	c1.69-2.98,4.19-5.41,7.21-7.03c0.64-0.26,1.23-0.47,1.78-0.66c0.71-0.06,1.41-0.16,2.11-0.3c0.56,2.03,1.37,3.98,2.4,5.81
	c-0.59,0.39-1.16,0.81-1.71,1.26c-0.55,0.29-1.12,0.56-1.71,0.79C16.42,57.89,12.93,57.93,9.63,57.01 M15.99,38.25
	c1.34-0.02,2.67,0.1,3.98,0.37c-0.32,2.23-0.32,4.5,0,6.73c-0.66,0.14-1.33,0.24-2.01,0.29c-0.61,0.05-1.26,0.09-1.97,0.09
	c-3.41-0.33-6.66-1.63-9.37-3.74C9.32,39.88,12.57,38.58,15.99,38.25 M19.72,27.1c0.58,0.23,1.15,0.5,1.7,0.79
	c0.54,0.45,1.11,0.87,1.7,1.26c-1.03,1.83-1.84,3.79-2.4,5.82c-0.71-0.15-1.42-0.26-2.14-0.32c-0.54-0.18-1.11-0.39-1.73-0.64
	c-3.03-1.61-5.53-4.06-7.21-7.05C12.94,26.04,16.44,26.09,19.72,27.1 M82.19,26.97C80.5,29.95,78,32.39,74.98,34
	c-0.64,0.26-1.23,0.47-1.78,0.66c-0.71,0.06-1.41,0.16-2.11,0.3c-0.56-2.03-1.37-3.98-2.4-5.81c0.59-0.39,1.16-0.81,1.71-1.26
	c0.55-0.29,1.12-0.56,1.71-0.79C75.39,26.08,78.89,26.04,82.19,26.97 M86.49,0H4.2C1.88,0,0,1.88,0,4.2l0.05,94.33
	c0.86-0.01,1.7-0.23,2.46-0.64c5.74-3.11,33.86-16.94,41.52-20.7V60.75c-8.8-0.85-16.17-7.86-17.1-16.95
	c-1.06-10.35,6.6-19.75,16.96-20.81c10.36-1.06,19.77,6.6,20.83,16.95c1.06,10.35-6.59,19.74-16.95,20.81v16.39L89.3,97.89
	c0.76,0.41,1.6,0.63,2.46,0.64l0.05-93.21C91.81,2.38,89.43,0,86.49,0"/>
<path class="st0" d="M39.83,57.45c1.02-0.1,1.95-1.02,1.82-2.24c-0.12-1.22-1.02-1.95-2.24-1.82c-1.22,0.12-1.95,1.02-1.82,2.24
	C37.72,56.85,38.61,57.58,39.83,57.45"/>
<path class="st0" d="M46.99,35.18c0.12,1.22,1.02,1.95,2.24,1.82c1.22-0.12,1.95-1.02,1.82-2.24c-0.12-1.22-1.02-1.95-2.24-1.82
	C47.6,33.07,46.89,34.17,46.99,35.18"/>
<path class="st0" d="M44.31,27.05c-1.22,0.12-1.95,1.02-1.82,2.24c0.12,1.22,1.02,1.95,2.24,1.82c1.22-0.12,1.95-1.02,1.82-2.24
	C46.43,27.65,45.53,26.92,44.31,27.05"/>
<path class="st0" d="M50.15,45.94c-1.22,0.12-1.95,1.02-1.82,2.24c0.12,1.22,1.02,1.95,2.24,1.82c1.02-0.1,1.93-1.22,1.82-2.24
	C52.26,46.54,51.37,45.81,50.15,45.94"/>
<path class="st0" d="M43.8,42.07c0.12,1.22,1.02,1.95,2.24,1.82c1.22-0.12,1.95-1.02,1.82-2.24s-1.02-1.95-2.24-1.82
	C44.4,39.96,43.67,40.85,43.8,42.07"/>
</svg>
